<svg xmlns="http://www.w3.org/2000/svg" viewBox="0 0 900 520" width="900" height="520">
<rect width="900" height="520" rx="34" fill="#fffaf7"/>
<text x="40" y="54" font-family="Arial, sans-serif" font-size="28" font-weight="700" fill="#36261f">Remada</text>
<text x="40" y="86" font-family="Arial, sans-serif" font-size="16" fill="#8b6d61">INÍCIO</text>
<text x="500" y="86" font-family="Arial, sans-serif" font-size="16" fill="#8b6d61">MOVIMENTO</text>
<path d="M430 265 h40" stroke="#f28b20" stroke-width="8" stroke-linecap="round"/>
<path d="M458 250 l18 15 -18 15" fill="none" stroke="#f28b20" stroke-width="8" stroke-linecap="round" stroke-linejoin="round"/>
<rect x="120" y="345" width="150" height="14" rx="9" fill="#6b7280"/><rect x="140" y="359" width="12" height="55" fill="#6b7280"/><rect x="238" y="359" width="12" height="55" fill="#6b7280"/><rect x="580" y="345" width="150" height="14" rx="9" fill="#6b7280"/><rect x="600" y="359" width="12" height="55" fill="#6b7280"/><rect x="698" y="359" width="12" height="55" fill="#6b7280"/><circle cx="190" cy="240" r="18" fill="#5a3427"/><line x1="200" y1="260" x2="225" y2="330" stroke="#f28b20" stroke-width="18"/><line x1="215" y1="285" x2="300" y2="300" stroke="#f2c6a5" stroke-width="11"/><line x1="300" y1="300" x2="350" y2="300" stroke="#4b5563" stroke-width="8"/><circle cx="650" cy="240" r="18" fill="#5a3427"/><line x1="660" y1="260" x2="685" y2="330" stroke="#f28b20" stroke-width="18"/><line x1="675" y1="285" x2="730" y2="285" stroke="#f2c6a5" stroke-width="11"/><line x1="730" y1="285" x2="760" y2="285" stroke="#4b5563" stroke-width="8"/>
<text x="40" y="490" font-family="Arial, sans-serif" font-size="14" fill="#8b6d61">Movimento ilustrativo • execute com carga confortável e técnica correta</text>
</svg>