<svg xmlns="http://www.w3.org/2000/svg" viewBox="0 0 900 520" width="900" height="520">
<rect width="900" height="520" rx="34" fill="#fffaf7"/>
<text x="40" y="54" font-family="Arial, sans-serif" font-size="28" font-weight="700" fill="#36261f">Supino / máquina de peito</text>
<text x="40" y="86" font-family="Arial, sans-serif" font-size="16" fill="#8b6d61">INÍCIO</text>
<text x="500" y="86" font-family="Arial, sans-serif" font-size="16" fill="#8b6d61">MOVIMENTO</text>
<path d="M430 265 h40" stroke="#f28b20" stroke-width="8" stroke-linecap="round"/>
<path d="M458 250 l18 15 -18 15" fill="none" stroke="#f28b20" stroke-width="8" stroke-linecap="round" stroke-linejoin="round"/>
<rect x="105" y="330" width="240" height="14" rx="9" fill="#6b7280"/><rect x="125" y="344" width="12" height="55" fill="#6b7280"/><rect x="313" y="344" width="12" height="55" fill="#6b7280"/><rect x="565" y="330" width="240" height="14" rx="9" fill="#6b7280"/><rect x="585" y="344" width="12" height="55" fill="#6b7280"/><rect x="773" y="344" width="12" height="55" fill="#6b7280"/><circle cx="165" cy="300" r="17" fill="#5a3427"/><line x1="185" y1="305" x2="275" y2="325" stroke="#f28b20" stroke-width="18"/><line x1="220" y1="300" x2="220" y2="245" stroke="#f2c6a5" stroke-width="10"/><line x1="300" y1="305" x2="300" y2="245" stroke="#f2c6a5" stroke-width="10"/><line x1="200" y1="235" x2="320" y2="235" stroke="#4b5563" stroke-width="10"/><circle cx="625" cy="300" r="17" fill="#5a3427"/><line x1="645" y1="305" x2="735" y2="325" stroke="#f28b20" stroke-width="18"/><line x1="680" y1="300" x2="660" y2="255" stroke="#f2c6a5" stroke-width="10"/><line x1="760" y1="300" x2="780" y2="255" stroke="#f2c6a5" stroke-width="10"/><line x1="645" y1="245" x2="795" y2="245" stroke="#4b5563" stroke-width="10"/>
<text x="40" y="490" font-family="Arial, sans-serif" font-size="14" fill="#8b6d61">Movimento ilustrativo • execute com carga confortável e técnica correta</text>
</svg>